<svg width="147" height="20" viewBox="0 0 147 20" fill="none" xmlns="http://www.w3.org/2000/svg">
<path d="M0.464844 19V0.953125H4.68359V7.77344H8.07031V0.953125H12.1953V19H8.07031V11.5117H4.68359V19H0.464844ZM18.0167 19V0.953125H27.837V4.45703H22.212V7.77344H27.4034V11.3945H22.212V15.332H27.837V19H18.0167ZM42.635 19H33.342V0.953125H37.5608V15.3555H42.635V19ZM56.6712 19H47.3783V0.953125H51.597V15.3555H56.6712V19ZM65.7739 12.2852H68.1997L66.9927 4.41016L65.7739 12.2852ZM60.5591 19L64.4966 0.953125H69.5122L73.4028 19H69.1841L68.6567 15.543H65.3403L64.813 19H60.5591Z" fill="#EC7F62"/>
<path d="M77.9352 19V0.953125H82.1539V8.44141L85.3063 0.953125H89.6188L85.7047 8.85156L89.7125 19H85.2828L83.068 12.4727L82.1539 14.1953V19H77.9352ZM93.7761 19V0.953125H97.9948V19H93.7761ZM111.199 12.0156H115.348C115.355 12.125 115.359 12.2422 115.359 12.3672C115.367 12.4922 115.371 12.6797 115.371 12.9297C115.371 15.1328 114.887 16.7695 113.918 17.8398C112.957 18.9023 111.48 19.4336 109.488 19.4336C108.316 19.4336 107.312 19.2383 106.476 18.8477C105.64 18.457 104.965 17.8672 104.449 17.0781C104.09 16.5156 103.832 15.7344 103.676 14.7344C103.519 13.7344 103.441 12.1484 103.441 9.97656C103.441 7.80469 103.519 6.21875 103.676 5.21875C103.832 4.21875 104.09 3.4375 104.449 2.875C104.957 2.09375 105.625 1.50781 106.453 1.11719C107.281 0.71875 108.269 0.519531 109.418 0.519531C111.394 0.519531 112.875 1.07031 113.859 2.17188C114.851 3.26562 115.348 4.90625 115.348 7.09375V7.26953L111.246 7.25781C111.23 6.03125 111.09 5.17188 110.824 4.67969C110.558 4.17969 110.113 3.92969 109.488 3.92969C108.808 3.92969 108.344 4.23438 108.094 4.84375C107.844 5.44531 107.719 7.04297 107.719 9.63672V9.97656C107.719 12.7656 107.844 14.4766 108.094 15.1094C108.344 15.7344 108.808 16.0469 109.488 16.0469C110.121 16.0469 110.562 15.8203 110.812 15.3672C111.07 14.9062 111.199 14.0547 111.199 12.8125V12.0156ZM121.005 19V0.953125H125.224V8.44141L128.376 0.953125H132.688L128.774 8.85156L132.782 19H128.353L126.138 12.4727L125.224 14.1953V19H121.005ZM136.154 19V15.6367L141.674 4.41016H136.6V0.953125H146.35V4.09375L140.807 15.3086H146.607V19H136.154Z" fill="black"/>
</svg>
