<svg width="371" height="38" viewBox="0 0 371 38" fill="none" xmlns="http://www.w3.org/2000/svg">
<path d="M304.608 37.288C303.568 37.288 302.728 36.976 302.088 36.352C301.448 35.712 301.128 34.872 301.128 33.832C301.128 33.208 301.256 32.656 301.512 32.176C301.784 31.68 302.2 31.256 302.76 30.904C303.336 30.552 304.056 30.256 304.92 30.016C305.8 29.776 306.848 29.592 308.064 29.464C308.048 29.16 308 28.872 307.92 28.6C307.856 28.312 307.736 28.064 307.56 27.856C307.4 27.632 307.184 27.464 306.912 27.352C306.64 27.224 306.304 27.16 305.904 27.16C305.328 27.16 304.76 27.272 304.2 27.496C303.656 27.72 303.12 27.992 302.592 28.312L301.584 26.464C302.24 26.048 302.976 25.688 303.792 25.384C304.608 25.08 305.488 24.928 306.432 24.928C307.904 24.928 309 25.368 309.72 26.248C310.456 27.112 310.824 28.368 310.824 30.016V37H308.544L308.352 35.704H308.256C307.728 36.152 307.16 36.528 306.552 36.832C305.96 37.136 305.312 37.288 304.608 37.288ZM305.496 35.128C305.976 35.128 306.408 35.016 306.792 34.792C307.192 34.568 307.616 34.248 308.064 33.832V31.192C307.264 31.288 306.592 31.416 306.048 31.576C305.504 31.736 305.064 31.92 304.728 32.128C304.392 32.32 304.152 32.544 304.008 32.8C303.864 33.056 303.792 33.328 303.792 33.616C303.792 34.144 303.952 34.528 304.272 34.768C304.592 35.008 305 35.128 305.496 35.128ZM318.255 37.288C316.767 37.288 315.583 36.752 314.703 35.68C313.839 34.592 313.407 33.072 313.407 31.12C313.407 30.16 313.543 29.296 313.815 28.528C314.103 27.76 314.479 27.112 314.943 26.584C315.407 26.056 315.935 25.648 316.527 25.36C317.135 25.072 317.759 24.928 318.399 24.928C319.071 24.928 319.639 25.048 320.103 25.288C320.567 25.512 321.031 25.824 321.495 26.224L321.399 24.328V20.056H324.159V37H321.879L321.687 35.728H321.591C321.159 36.16 320.655 36.528 320.079 36.832C319.503 37.136 318.895 37.288 318.255 37.288ZM318.927 35.008C319.807 35.008 320.631 34.568 321.399 33.688V28.192C320.983 27.824 320.575 27.568 320.175 27.424C319.791 27.28 319.399 27.208 318.999 27.208C318.231 27.208 317.583 27.544 317.055 28.216C316.527 28.888 316.263 29.848 316.263 31.096C316.263 32.376 316.487 33.352 316.935 34.024C317.399 34.68 318.063 35.008 318.927 35.008ZM327.674 37V25.216H329.954L330.146 26.824H330.242C330.738 26.296 331.274 25.848 331.85 25.48C332.442 25.112 333.106 24.928 333.842 24.928C334.706 24.928 335.394 25.112 335.906 25.48C336.434 25.848 336.834 26.368 337.106 27.04C337.666 26.432 338.25 25.928 338.858 25.528C339.466 25.128 340.146 24.928 340.898 24.928C342.146 24.928 343.066 25.336 343.658 26.152C344.25 26.952 344.546 28.104 344.546 29.608V37H341.762V29.968C341.762 28.992 341.61 28.304 341.306 27.904C341.018 27.504 340.57 27.304 339.962 27.304C339.226 27.304 338.402 27.792 337.49 28.768V37H334.73V29.968C334.73 28.992 334.578 28.304 334.274 27.904C333.986 27.504 333.53 27.304 332.906 27.304C332.17 27.304 331.346 27.792 330.434 28.768V37H327.674ZM347.9 37V25.216H350.66V37H347.9ZM349.292 23.152C348.796 23.152 348.388 23.008 348.068 22.72C347.748 22.432 347.588 22.056 347.588 21.592C347.588 21.128 347.748 20.752 348.068 20.464C348.388 20.16 348.796 20.008 349.292 20.008C349.788 20.008 350.196 20.16 350.516 20.464C350.836 20.752 350.996 21.128 350.996 21.592C350.996 22.056 350.836 22.432 350.516 22.72C350.196 23.008 349.788 23.152 349.292 23.152ZM354.182 37V25.216H356.462L356.654 26.8H356.75C357.278 26.288 357.846 25.848 358.454 25.48C359.078 25.112 359.798 24.928 360.614 24.928C361.878 24.928 362.798 25.336 363.374 26.152C363.95 26.952 364.238 28.104 364.238 29.608V37H361.478V29.968C361.478 28.992 361.334 28.304 361.046 27.904C360.758 27.504 360.286 27.304 359.63 27.304C359.118 27.304 358.662 27.432 358.262 27.688C357.878 27.928 357.438 28.288 356.942 28.768V37H354.182ZM369.171 37.288C368.659 37.288 368.227 37.112 367.875 36.76C367.539 36.408 367.371 35.96 367.371 35.416C367.371 34.872 367.539 34.424 367.875 34.072C368.227 33.72 368.659 33.544 369.171 33.544C369.683 33.544 370.107 33.72 370.443 34.072C370.779 34.424 370.947 34.872 370.947 35.416C370.947 35.96 370.779 36.408 370.443 36.76C370.107 37.112 369.683 37.288 369.171 37.288Z" fill="black"/>
<path d="M0.929688 37V0.90625H9.36719V14.5469H16.1406V0.90625H24.3906V37H16.1406V22.0234H9.36719V37H0.929688ZM36.0334 37V0.90625H55.6741V7.91406H44.4241V14.5469H54.8069V21.7891H44.4241V29.6641H55.6741V37H36.0334ZM85.27 37H66.6841V0.90625H75.1216V29.7109H85.27V37ZM113.342 37H94.7566V0.90625H103.194V29.7109H113.342V37ZM131.548 23.5703H136.399L133.985 7.82031L131.548 23.5703ZM121.118 37L128.993 0.90625H139.024L146.806 37H138.368L137.313 30.0859H130.681L129.626 37H121.118Z" fill="#EC7F62"/>
<path d="M155.87 37V0.90625H164.308V15.8828L170.613 0.90625H179.238L171.409 16.7031L179.425 37H170.566L166.136 23.9453L164.308 27.3906V37H155.87ZM187.552 37V0.90625H195.99V37H187.552ZM222.398 23.0312H230.695C230.711 23.25 230.718 23.4844 230.718 23.7344C230.734 23.9844 230.742 24.3594 230.742 24.8594C230.742 29.2656 229.773 32.5391 227.836 34.6797C225.914 36.8047 222.961 37.8672 218.976 37.8672C216.633 37.8672 214.625 37.4766 212.953 36.6953C211.281 35.9141 209.929 34.7344 208.898 33.1562C208.179 32.0312 207.664 30.4688 207.351 28.4688C207.039 26.4688 206.883 23.2969 206.883 18.9531C206.883 14.6094 207.039 11.4375 207.351 9.4375C207.664 7.4375 208.179 5.875 208.898 4.75C209.914 3.1875 211.25 2.01562 212.906 1.23438C214.562 0.4375 216.539 0.0390625 218.836 0.0390625C222.789 0.0390625 225.75 1.14062 227.718 3.34375C229.703 5.53125 230.695 8.8125 230.695 13.1875V13.5391L222.492 13.5156C222.461 11.0625 222.179 9.34375 221.648 8.35938C221.117 7.35937 220.226 6.85938 218.976 6.85938C217.617 6.85938 216.687 7.46875 216.187 8.6875C215.687 9.89062 215.437 13.0859 215.437 18.2734V18.9531C215.437 24.5312 215.687 27.9531 216.187 29.2188C216.687 30.4688 217.617 31.0938 218.976 31.0938C220.242 31.0938 221.125 30.6406 221.625 29.7344C222.14 28.8125 222.398 27.1094 222.398 24.625V23.0312ZM242.01 37V0.90625H250.447V15.8828L256.752 0.90625H265.377L257.549 16.7031L265.564 37H256.705L252.275 23.9453L250.447 27.3906V37H242.01ZM272.309 37V30.2734L283.348 7.82031H273.199V0.90625H292.699V7.1875L281.613 29.6172H293.215V37H272.309Z" fill="black"/>
</svg>
