<svg width="393" height="54" viewBox="0 0 393 54" fill="none" xmlns="http://www.w3.org/2000/svg">
<path d="M1.90625 51V2.875H13.1562V21.0625H22.1875V2.875H33.1875V51H22.1875V31.0312H13.1562V51H1.90625ZM48.7113 51V2.875H74.8988V12.2188H59.8988V21.0625H73.7425V30.7188H59.8988V41.2188H74.8988V51H48.7113ZM114.36 51H89.5788V2.875H100.829V41.2812H114.36V51ZM151.79 51H127.009V2.875H138.259V41.2812H151.79V51ZM176.064 33.0938H182.533L179.314 12.0938L176.064 33.0938ZM162.158 51L172.658 2.875H186.033L196.408 51H185.158L183.751 41.7812H174.908L173.501 51H162.158ZM208.494 51V2.875H219.744V22.8438L228.15 2.875H239.65L229.212 23.9375L239.9 51H228.087L222.181 33.5938L219.744 38.1875V51H208.494ZM250.736 51V2.875H261.986V51H250.736ZM297.198 32.375H308.26C308.281 32.6667 308.291 32.9792 308.291 33.3125C308.312 33.6458 308.323 34.1458 308.323 34.8125C308.323 40.6875 307.031 45.0521 304.448 47.9062C301.885 50.7396 297.948 52.1562 292.635 52.1562C289.51 52.1562 286.833 51.6354 284.604 50.5938C282.375 49.5521 280.573 47.9792 279.198 45.875C278.239 44.375 277.552 42.2917 277.135 39.625C276.718 36.9583 276.51 32.7292 276.51 26.9375C276.51 21.1458 276.718 16.9167 277.135 14.25C277.552 11.5833 278.239 9.5 279.198 8C280.552 5.91667 282.333 4.35417 284.541 3.3125C286.75 2.25 289.385 1.71875 292.448 1.71875C297.718 1.71875 301.666 3.1875 304.291 6.125C306.937 9.04167 308.26 13.4167 308.26 19.25V19.7188L297.323 19.6875C297.281 16.4167 296.906 14.125 296.198 12.8125C295.489 11.4792 294.302 10.8125 292.635 10.8125C290.823 10.8125 289.583 11.625 288.916 13.25C288.25 14.8542 287.916 19.1146 287.916 26.0312V26.9375C287.916 34.375 288.25 38.9375 288.916 40.625C289.583 42.2917 290.823 43.125 292.635 43.125C294.323 43.125 295.5 42.5208 296.166 41.3125C296.854 40.0833 297.198 37.8125 297.198 34.5V32.375ZM323.346 51V2.875H334.596V22.8438L343.003 2.875H354.503L344.065 23.9375L354.753 51H342.94L337.034 33.5938L334.596 38.1875V51H323.346ZM363.745 51V42.0312L378.464 12.0938H364.932V2.875H390.932V11.25L376.151 41.1562H391.62V51H363.745Z" fill="white"/>
<path d="M1.90625 51H0.90625V52H1.90625V51ZM1.90625 2.875V1.875H0.90625V2.875H1.90625ZM13.1562 2.875H14.1562V1.875H13.1562V2.875ZM13.1562 21.0625H12.1562V22.0625H13.1562V21.0625ZM22.1875 21.0625V22.0625H23.1875V21.0625H22.1875ZM22.1875 2.875V1.875H21.1875V2.875H22.1875ZM33.1875 2.875H34.1875V1.875H33.1875V2.875ZM33.1875 51V52H34.1875V51H33.1875ZM22.1875 51H21.1875V52H22.1875V51ZM22.1875 31.0312H23.1875V30.0312H22.1875V31.0312ZM13.1562 31.0312V30.0312H12.1562V31.0312H13.1562ZM13.1562 51V52H14.1562V51H13.1562ZM2.90625 51V2.875H0.90625V51H2.90625ZM1.90625 3.875H13.1562V1.875H1.90625V3.875ZM12.1562 2.875V21.0625H14.1562V2.875H12.1562ZM13.1562 22.0625H22.1875V20.0625H13.1562V22.0625ZM23.1875 21.0625V2.875H21.1875V21.0625H23.1875ZM22.1875 3.875H33.1875V1.875H22.1875V3.875ZM32.1875 2.875V51H34.1875V2.875H32.1875ZM33.1875 50H22.1875V52H33.1875V50ZM23.1875 51V31.0312H21.1875V51H23.1875ZM22.1875 30.0312H13.1562V32.0312H22.1875V30.0312ZM12.1562 31.0312V51H14.1562V31.0312H12.1562ZM13.1562 50H1.90625V52H13.1562V50ZM48.7113 51H47.7113V52H48.7113V51ZM48.7113 2.875V1.875H47.7113V2.875H48.7113ZM74.8988 2.875H75.8988V1.875H74.8988V2.875ZM74.8988 12.2188V13.2188H75.8988V12.2188H74.8988ZM59.8988 12.2188V11.2188H58.8988V12.2188H59.8988ZM59.8988 21.0625H58.8988V22.0625H59.8988V21.0625ZM73.7425 21.0625H74.7425V20.0625H73.7425V21.0625ZM73.7425 30.7188V31.7188H74.7425V30.7188H73.7425ZM59.8988 30.7188V29.7188H58.8988V30.7188H59.8988ZM59.8988 41.2188H58.8988V42.2188H59.8988V41.2188ZM74.8988 41.2188H75.8988V40.2188H74.8988V41.2188ZM74.8988 51V52H75.8988V51H74.8988ZM49.7113 51V2.875H47.7113V51H49.7113ZM48.7113 3.875H74.8988V1.875H48.7113V3.875ZM73.8988 2.875V12.2188H75.8988V2.875H73.8988ZM74.8988 11.2188H59.8988V13.2188H74.8988V11.2188ZM58.8988 12.2188V21.0625H60.8988V12.2188H58.8988ZM59.8988 22.0625H73.7425V20.0625H59.8988V22.0625ZM72.7425 21.0625V30.7188H74.7425V21.0625H72.7425ZM73.7425 29.7188H59.8988V31.7188H73.7425V29.7188ZM58.8988 30.7188V41.2188H60.8988V30.7188H58.8988ZM59.8988 42.2188H74.8988V40.2188H59.8988V42.2188ZM73.8988 41.2188V51H75.8988V41.2188H73.8988ZM74.8988 50H48.7113V52H74.8988V50ZM114.36 51V52H115.36V51H114.36ZM89.5788 51H88.5788V52H89.5788V51ZM89.5788 2.875V1.875H88.5788V2.875H89.5788ZM100.829 2.875H101.829V1.875H100.829V2.875ZM100.829 41.2812H99.8288V42.2812H100.829V41.2812ZM114.36 41.2812H115.36V40.2812H114.36V41.2812ZM114.36 50H89.5788V52H114.36V50ZM90.5788 51V2.875H88.5788V51H90.5788ZM89.5788 3.875H100.829V1.875H89.5788V3.875ZM99.8288 2.875V41.2812H101.829V2.875H99.8288ZM100.829 42.2812H114.36V40.2812H100.829V42.2812ZM113.36 41.2812V51H115.36V41.2812H113.36ZM151.79 51V52H152.79V51H151.79ZM127.009 51H126.009V52H127.009V51ZM127.009 2.875V1.875H126.009V2.875H127.009ZM138.259 2.875H139.259V1.875H138.259V2.875ZM138.259 41.2812H137.259V42.2812H138.259V41.2812ZM151.79 41.2812H152.79V40.2812H151.79V41.2812ZM151.79 50H127.009V52H151.79V50ZM128.009 51V2.875H126.009V51H128.009ZM127.009 3.875H138.259V1.875H127.009V3.875ZM137.259 2.875V41.2812H139.259V2.875H137.259ZM138.259 42.2812H151.79V40.2812H138.259V42.2812ZM150.79 41.2812V51H152.79V41.2812H150.79ZM176.064 33.0938L175.076 32.9408L174.897 34.0938H176.064V33.0938ZM182.533 33.0938V34.0938H183.697L183.521 32.9422L182.533 33.0938ZM179.314 12.0938L180.302 11.9422L178.326 11.9408L179.314 12.0938ZM162.158 51L161.18 50.7868L160.916 52H162.158V51ZM172.658 2.875V1.875H171.852L171.68 2.66183L172.658 2.875ZM186.033 2.875L187.01 2.66426L186.84 1.875H186.033V2.875ZM196.408 51V52H197.646L197.385 50.7893L196.408 51ZM185.158 51L184.169 51.1508L184.298 52H185.158V51ZM183.751 41.7812L184.74 41.6305L184.61 40.7812H183.751V41.7812ZM174.908 41.7812V40.7812H174.048L173.919 41.6305L174.908 41.7812ZM173.501 51V52H174.36L174.49 51.1508L173.501 51ZM176.064 34.0938H182.533V32.0938H176.064V34.0938ZM183.521 32.9422L180.302 11.9422L178.325 12.2453L181.544 33.2453L183.521 32.9422ZM178.326 11.9408L175.076 32.9408L177.052 33.2467L180.302 12.2467L178.326 11.9408ZM163.135 51.2132L173.635 3.08817L171.68 2.66183L161.18 50.7868L163.135 51.2132ZM172.658 3.875H186.033V1.875H172.658V3.875ZM185.055 3.08574L195.43 51.2107L197.385 50.7893L187.01 2.66426L185.055 3.08574ZM196.408 50H185.158V52H196.408V50ZM186.146 50.8492L184.74 41.6305L182.763 41.932L184.169 51.1508L186.146 50.8492ZM183.751 40.7812H174.908V42.7812H183.751V40.7812ZM173.919 41.6305L172.513 50.8492L174.49 51.1508L175.896 41.932L173.919 41.6305ZM173.501 50H162.158V52H173.501V50ZM208.494 51H207.494V52H208.494V51ZM208.494 2.875V1.875H207.494V2.875H208.494ZM219.744 2.875H220.744V1.875H219.744V2.875ZM219.744 22.8438H218.744L220.665 23.2317L219.744 22.8438ZM228.15 2.875V1.875H227.486L227.228 2.48701L228.15 2.875ZM239.65 2.875L240.546 3.31902L241.262 1.875H239.65V2.875ZM229.212 23.9375L228.316 23.4935L228.119 23.8916L228.282 24.3048L229.212 23.9375ZM239.9 51V52H241.37L240.83 50.6327L239.9 51ZM228.087 51L227.141 51.3213L227.371 52H228.087V51ZM222.181 33.5938L223.128 33.2724L222.384 31.0785L221.298 33.125L222.181 33.5938ZM219.744 38.1875L218.86 37.7188L218.744 37.9386V38.1875H219.744ZM219.744 51V52H220.744V51H219.744ZM209.494 51V2.875H207.494V51H209.494ZM208.494 3.875H219.744V1.875H208.494V3.875ZM218.744 2.875V22.8438H220.744V2.875H218.744ZM220.665 23.2317L229.072 3.26299L227.228 2.48701L218.822 22.4558L220.665 23.2317ZM228.15 3.875H239.65V1.875H228.15V3.875ZM238.754 2.43098L228.316 23.4935L230.109 24.3815L240.546 3.31902L238.754 2.43098ZM228.282 24.3048L238.97 51.3673L240.83 50.6327L230.143 23.5702L228.282 24.3048ZM239.9 50H228.087V52H239.9V50ZM229.034 50.6787L223.128 33.2724L221.234 33.9151L227.141 51.3213L229.034 50.6787ZM221.298 33.125L218.86 37.7188L220.627 38.6562L223.065 34.0625L221.298 33.125ZM218.744 38.1875V51H220.744V38.1875H218.744ZM219.744 50H208.494V52H219.744V50ZM250.736 51H249.736V52H250.736V51ZM250.736 2.875V1.875H249.736V2.875H250.736ZM261.986 2.875H262.986V1.875H261.986V2.875ZM261.986 51V52H262.986V51H261.986ZM251.736 51V2.875H249.736V51H251.736ZM250.736 3.875H261.986V1.875H250.736V3.875ZM260.986 2.875V51H262.986V2.875H260.986ZM261.986 50H250.736V52H261.986V50ZM297.198 32.375V31.375H296.198V32.375H297.198ZM308.26 32.375L309.257 32.3038L309.191 31.375H308.26V32.375ZM308.291 33.3125H307.291V33.3437L307.293 33.3749L308.291 33.3125ZM304.448 47.9062L303.706 47.2352L303.706 47.2355L304.448 47.9062ZM279.198 45.875L278.355 46.4134L278.36 46.422L279.198 45.875ZM279.198 8L278.359 7.45499L278.355 7.46161L279.198 8ZM284.541 3.3125L284.968 4.21696L284.975 4.21362L284.541 3.3125ZM304.291 6.125L303.546 6.79135L303.551 6.79688L304.291 6.125ZM308.26 19.7188L308.257 20.7187L309.26 20.7216V19.7188H308.26ZM297.323 19.6875L296.323 19.7002L296.335 20.6847L297.32 20.6875L297.323 19.6875ZM296.198 12.8125L295.314 13.2817L295.317 13.2874L296.198 12.8125ZM288.916 13.25L289.84 13.6338L289.841 13.6296L288.916 13.25ZM288.916 40.625L287.986 40.9924L287.988 40.9964L288.916 40.625ZM296.166 41.3125L295.293 40.8243L295.291 40.8294L296.166 41.3125ZM297.198 33.375H308.26V31.375H297.198V33.375ZM307.263 32.4462C307.281 32.7112 307.291 32.9997 307.291 33.3125H309.291C309.291 32.9586 309.28 32.6221 309.257 32.3038L307.263 32.4462ZM307.293 33.3749C307.312 33.6759 307.323 34.1505 307.323 34.8125H309.323C309.323 34.1412 309.312 33.6157 309.289 33.2501L307.293 33.3749ZM307.323 34.8125C307.323 40.5657 306.054 44.6408 303.706 47.2352L305.189 48.5773C308.007 45.4633 309.323 40.8093 309.323 34.8125H307.323ZM303.706 47.2355C301.398 49.7873 297.779 51.1562 292.635 51.1562V53.1562C298.116 53.1562 302.372 51.6919 305.189 48.577L303.706 47.2355ZM292.635 51.1562C289.618 51.1562 287.093 50.6532 285.027 49.6878L284.18 51.4997C286.573 52.6177 289.402 53.1562 292.635 53.1562V51.1562ZM285.027 49.6878C282.97 48.7267 281.31 47.2799 280.035 45.328L278.36 46.422C279.835 48.6785 281.779 50.3775 284.18 51.4997L285.027 49.6878ZM280.04 45.3366C279.185 43.9975 278.528 42.0644 278.123 39.4706L276.147 39.7794C276.575 42.5189 277.294 44.7525 278.355 46.4134L280.04 45.3366ZM278.123 39.4706C277.719 36.8856 277.51 32.7222 277.51 26.9375H275.51C275.51 32.7362 275.718 37.0311 276.147 39.7794L278.123 39.4706ZM277.51 26.9375C277.51 21.1528 277.719 16.9894 278.123 14.4044L276.147 14.0956C275.718 16.8439 275.51 21.1388 275.51 26.9375H277.51ZM278.123 14.4044C278.528 11.8106 279.185 9.87751 280.04 8.53839L278.355 7.46161C277.294 9.12249 276.575 11.3561 276.147 14.0956L278.123 14.4044ZM280.036 8.54499C281.291 6.61449 282.931 5.17789 284.968 4.21693L284.115 2.40807C281.735 3.53044 279.813 5.21884 278.359 7.45501L280.036 8.54499ZM284.975 4.21362C287.018 3.23038 289.499 2.71875 292.448 2.71875V0.71875C289.271 0.71875 286.481 1.26962 284.108 2.41138L284.975 4.21362ZM292.448 2.71875C297.535 2.71875 301.169 4.13136 303.546 6.79133L305.037 5.45867C302.164 2.24364 297.902 0.71875 292.448 0.71875V2.71875ZM303.551 6.79688C305.965 9.45819 307.26 13.548 307.26 19.25H309.26C309.26 13.2853 307.909 8.62514 305.032 5.45312L303.551 6.79688ZM307.26 19.25V19.7188H309.26V19.25H307.26ZM308.263 18.7188L297.325 18.6875L297.32 20.6875L308.257 20.7187L308.263 18.7188ZM298.322 19.6748C298.281 16.3915 297.911 13.8821 297.078 12.3376L295.317 13.2874C295.901 14.3679 296.281 16.4419 296.323 19.7002L298.322 19.6748ZM297.081 12.3433C296.647 11.5265 296.044 10.8777 295.265 10.4405C294.492 10.0064 293.602 9.8125 292.635 9.8125V11.8125C293.335 11.8125 293.872 11.9519 294.286 12.1845C294.695 12.414 295.04 12.7652 295.314 13.2817L297.081 12.3433ZM292.635 9.8125C291.578 9.8125 290.614 10.0508 289.798 10.5855C288.98 11.1217 288.387 11.9064 287.991 12.8704L289.841 13.6296C290.113 12.9686 290.473 12.5345 290.894 12.2582C291.318 11.9804 291.88 11.8125 292.635 11.8125V9.8125ZM287.993 12.8662C287.592 13.8317 287.336 15.4443 287.169 17.5704C287 19.7374 286.916 22.5606 286.916 26.0312H288.916C288.916 22.5852 288.999 19.8199 289.163 17.7264C289.33 15.5921 289.574 14.2725 289.84 13.6338L287.993 12.8662ZM286.916 26.0312V26.9375H288.916V26.0312H286.916ZM286.916 26.9375C286.916 30.6676 287 33.6947 287.169 36.0104C287.335 38.2849 287.59 39.9897 287.986 40.9924L289.846 40.2576C289.576 39.5728 289.331 38.1526 289.164 35.8646C288.999 33.6178 288.916 30.6449 288.916 26.9375H286.916ZM287.988 40.9964C288.38 41.978 288.97 42.7801 289.788 43.3299C290.605 43.8792 291.573 44.125 292.635 44.125V42.125C291.885 42.125 291.326 41.9541 290.904 41.6701C290.482 41.3866 290.119 40.9386 289.845 40.2536L287.988 40.9964ZM292.635 44.125C294.591 44.125 296.157 43.3989 297.042 41.7956L295.291 40.8294C294.842 41.6428 294.054 42.125 292.635 42.125V44.125ZM297.039 41.8007C297.467 41.0358 297.748 40.0261 297.928 38.8372C298.11 37.6358 298.198 36.1865 298.198 34.5H296.198C296.198 36.126 296.113 37.4683 295.951 38.5378C295.787 39.6197 295.553 40.36 295.293 40.8243L297.039 41.8007ZM298.198 34.5V32.375H296.198V34.5H298.198ZM323.346 51H322.346V52H323.346V51ZM323.346 2.875V1.875H322.346V2.875H323.346ZM334.596 2.875H335.596V1.875H334.596V2.875ZM334.596 22.8438H333.596L335.518 23.2317L334.596 22.8438ZM343.003 2.875V1.875H342.338L342.081 2.48701L343.003 2.875ZM354.503 2.875L355.399 3.31902L356.114 1.875H354.503V2.875ZM344.065 23.9375L343.169 23.4935L342.972 23.8916L343.135 24.3048L344.065 23.9375ZM354.753 51V52H356.223L355.683 50.6327L354.753 51ZM342.94 51L341.993 51.3213L342.223 52H342.94V51ZM337.034 33.5938L337.981 33.2724L337.236 31.0785L336.15 33.125L337.034 33.5938ZM334.596 38.1875L333.713 37.7188L333.596 37.9386V38.1875H334.596ZM334.596 51V52H335.596V51H334.596ZM324.346 51V2.875H322.346V51H324.346ZM323.346 3.875H334.596V1.875H323.346V3.875ZM333.596 2.875V22.8438H335.596V2.875H333.596ZM335.518 23.2317L343.924 3.26299L342.081 2.48701L333.675 22.4558L335.518 23.2317ZM343.003 3.875H354.503V1.875H343.003V3.875ZM353.606 2.43098L343.169 23.4935L344.961 24.3815L355.399 3.31902L353.606 2.43098ZM343.135 24.3048L353.822 51.3673L355.683 50.6327L344.995 23.5702L343.135 24.3048ZM354.753 50H342.94V52H354.753V50ZM343.887 50.6787L337.981 33.2724L336.087 33.9151L341.993 51.3213L343.887 50.6787ZM336.15 33.125L333.713 37.7188L335.48 38.6562L337.917 34.0625L336.15 33.125ZM333.596 38.1875V51H335.596V38.1875H333.596ZM334.596 50H323.346V52H334.596V50ZM363.745 51H362.745V52H363.745V51ZM363.745 42.0312L362.848 41.59L362.745 41.7987V42.0312H363.745ZM378.464 12.0938L379.361 12.535L380.07 11.0938H378.464V12.0938ZM364.932 12.0938H363.932V13.0938H364.932V12.0938ZM364.932 2.875V1.875H363.932V2.875H364.932ZM390.932 2.875H391.932V1.875H390.932V2.875ZM390.932 11.25L391.829 11.6931L391.932 11.4836V11.25H390.932ZM376.151 41.1562L375.255 40.7132L374.542 42.1562H376.151V41.1562ZM391.62 41.1562H392.62V40.1562H391.62V41.1562ZM391.62 51V52H392.62V51H391.62ZM364.745 51V42.0312H362.745V51H364.745ZM364.642 42.4725L379.361 12.535L377.566 11.6525L362.848 41.59L364.642 42.4725ZM378.464 11.0938H364.932V13.0938H378.464V11.0938ZM365.932 12.0938V2.875H363.932V12.0938H365.932ZM364.932 3.875H390.932V1.875H364.932V3.875ZM389.932 2.875V11.25H391.932V2.875H389.932ZM390.036 10.8069L375.255 40.7132L377.048 41.5993L391.829 11.6931L390.036 10.8069ZM376.151 42.1562H391.62V40.1562H376.151V42.1562ZM390.62 41.1562V51H392.62V41.1562H390.62ZM391.62 50H363.745V52H391.62V50Z" fill="black"/>
</svg>
