<svg width="100" height="100" viewBox="0 0 100 100" fill="none" xmlns="http://www.w3.org/2000/svg">
<path d="M100 50C100 39.7945 96.877 29.8333 91.0506 21.4544C85.2241 13.0756 76.9732 6.68026 67.406 3.12751C57.8388 -0.425251 47.4136 -0.965317 37.5305 1.57985C27.6474 4.12501 18.7798 9.6335 12.1188 17.3655C5.45771 25.0974 1.32218 34.6826 0.267643 44.8335C-0.786895 54.9844 1.29006 65.215 6.21954 74.151C11.149 83.0871 18.695 90.3007 27.8438 94.823C36.9927 99.3453 47.3063 100.96 57.3995 99.4494L55.9378 89.6808C47.8385 90.8928 39.5623 89.5973 32.2207 85.9684C24.8792 82.3394 18.8239 76.5508 14.8683 69.3801C10.9126 62.2093 9.24592 53.9998 10.0921 45.8541C10.9384 37.7085 14.2569 30.0169 19.6021 23.8123C24.9473 17.6078 32.0631 13.1875 39.9938 11.1451C47.9245 9.10275 56.2903 9.53613 63.9675 12.387C71.6447 15.238 78.2657 20.3699 82.9411 27.0935C87.6166 33.8172 90.1226 41.8105 90.1226 50H100Z" fill="#EC7F62"/>
</svg>
