<svg width="15" height="18" viewBox="0 0 15 18" fill="none" xmlns="http://www.w3.org/2000/svg">
<path d="M10.0519 6.52148C9.81299 6.52148 9.61937 6.71019 9.61937 6.94302V14.9102C9.61937 15.1429 9.81299 15.3318 10.0519 15.3318C10.2908 15.3318 10.4844 15.1429 10.4844 14.9102V6.94302C10.4844 6.71019 10.2908 6.52148 10.0519 6.52148Z" fill="black"/>
<path d="M4.94818 6.52148C4.70928 6.52148 4.51565 6.71019 4.51565 6.94302V14.9102C4.51565 15.1429 4.70928 15.3318 4.94818 15.3318C5.18708 15.3318 5.3807 15.1429 5.3807 14.9102V6.94302C5.3807 6.71019 5.18708 6.52148 4.94818 6.52148Z" fill="black"/>
<path d="M1.22843 5.35877V15.7447C1.22843 16.3586 1.45939 16.9351 1.86285 17.3487C2.26446 17.7635 2.82336 17.999 3.40828 18H11.5917C12.1768 17.999 12.7357 17.7635 13.1371 17.3487C13.5406 16.9351 13.7716 16.3586 13.7716 15.7447V5.35877C14.5736 5.15129 15.0933 4.39614 14.986 3.59405C14.8786 2.79213 14.1776 2.19225 13.3477 2.19209H11.1332V1.66516C11.1357 1.22204 10.956 0.796544 10.6341 0.483514C10.3122 0.170649 9.87498 -0.00356726 9.42033 5.53875e-05H5.57967C5.12502 -0.00356726 4.68776 0.170649 4.36591 0.483514C4.04405 0.796544 3.86428 1.22204 3.86682 1.66516V2.19209H1.65234C0.822437 2.19225 0.121447 2.79213 0.0139923 3.59405C-0.0932934 4.39614 0.426409 5.15129 1.22843 5.35877ZM11.5917 17.1569H3.40828C2.66876 17.1569 2.09348 16.5378 2.09348 15.7447V5.39582H12.9065V15.7447C12.9065 16.5378 12.3312 17.1569 11.5917 17.1569ZM4.73186 1.66516C4.72899 1.44566 4.81752 1.23439 4.97735 1.07944C5.13701 0.924489 5.35429 0.839357 5.57967 0.843144H9.42033C9.64571 0.839357 9.86299 0.924489 10.0226 1.07944C10.1825 1.23423 10.271 1.44566 10.2681 1.66516V2.19209H4.73186V1.66516ZM1.65234 3.03517H13.3477C13.7777 3.03517 14.1262 3.37488 14.1262 3.79395C14.1262 4.21303 13.7777 4.55273 13.3477 4.55273H1.65234C1.22235 4.55273 0.873798 4.21303 0.873798 3.79395C0.873798 3.37488 1.22235 3.03517 1.65234 3.03517Z" fill="black"/>
<path d="M7.50003 6.52148C7.26113 6.52148 7.06751 6.71019 7.06751 6.94302V14.9102C7.06751 15.1429 7.26113 15.3318 7.50003 15.3318C7.73893 15.3318 7.93255 15.1429 7.93255 14.9102V6.94302C7.93255 6.71019 7.73893 6.52148 7.50003 6.52148Z" fill="black"/>
</svg>
