<svg id="Слой_1" data-name="Слой 1" xmlns="http://www.w3.org/2000/svg" viewBox="0 0 603.54 603.54"><defs><style>.cls-1{fill:#dd7c5d;}.cls-2{fill:#000105;}</style></defs><title>logo</title><path class="cls-1" d="M28.58,419.91,110.46,35.49h89.87l-30.7,145.28H231l31.2-145.28h90.12L270.47,419.91H180.35l34.95-163H153.89l-34.7,163Z"/><path class="cls-2" d="M254.91,565.77l81.38-384.43h89.37l-34.2,145.78,92.11-145.78h97.11L452.87,354.58,508,565.77H419.17L392,425.23l-27.46,35.2-20,105.34Z"/><polygon class="cls-1" points="208.99 286.35 180.35 419.91 270.47 419.91 298.92 286.35 208.99 286.35"/><polygon class="cls-2" points="370.46 452.79 391.96 425.23 397.3 452.79 478.52 452.79 452.87 354.58 580.68 181.34 483.57 181.34 391.46 327.12 425.66 181.34 336.29 181.34 278.83 452.79 370.46 452.79"/></svg>